<svg id="Capa_1" enable-background="new 0 0 512 512" height="512" viewBox="0 0 512 512" width="512" xmlns="http://www.w3.org/2000/svg"><g><g><path d="m475.029 143.428c1.693 0 3.066-1.372 3.066-3.064 0-1.693-1.373-3.065-3.066-3.065s-3.065 1.372-3.065 3.065c0 1.692 1.372 3.064 3.065 3.064z"/><path d="m475.029 163.191c1.693 0 3.066-1.372 3.066-3.065s-1.373-3.066-3.066-3.066-3.065 1.372-3.065 3.066c0 1.693 1.372 3.065 3.065 3.065z"/><path d="m465.52 133.175c1.693 0 3.066-1.373 3.066-3.065 0-1.693-1.373-3.066-3.066-3.066s-3.066 1.373-3.066 3.066c0 1.692 1.373 3.065 3.066 3.065z"/><path d="m455.266 143.428c1.693 0 3.066-1.372 3.066-3.064 0-1.693-1.372-3.065-3.066-3.065-1.693 0-3.065 1.372-3.065 3.065 0 1.692 1.372 3.064 3.065 3.064z"/><path d="m465.52 152.939c1.693 0 3.066-1.373 3.066-3.066s-1.373-3.066-3.066-3.066-3.066 1.372-3.066 3.066c0 1.692 1.373 3.066 3.066 3.066z"/><path d="m455.266 163.191c1.693 0 3.066-1.372 3.066-3.065s-1.372-3.066-3.066-3.066c-1.693 0-3.065 1.372-3.065 3.066 0 1.693 1.372 3.065 3.065 3.065z"/><path d="m465.52 172.701c1.693 0 3.066-1.372 3.066-3.066 0-1.693-1.373-3.065-3.066-3.065s-3.066 1.372-3.066 3.065c0 1.694 1.373 3.066 3.066 3.066z"/><path d="m455.266 182.955c1.693 0 3.066-1.373 3.066-3.066 0-1.692-1.372-3.066-3.066-3.066-1.693 0-3.065 1.373-3.065 3.066s1.372 3.066 3.065 3.066z"/><path d="m465.52 192.465c1.693 0 3.066-1.373 3.066-3.066 0-1.692-1.373-3.064-3.066-3.064s-3.066 1.372-3.066 3.064c0 1.693 1.373 3.066 3.066 3.066z"/><path d="m455.266 202.719c1.693 0 3.066-1.373 3.066-3.066s-1.372-3.065-3.066-3.065c-1.693 0-3.065 1.372-3.065 3.065s1.372 3.066 3.065 3.066z"/><path d="m465.52 212.227c1.693 0 3.066-1.373 3.066-3.065s-1.373-3.065-3.066-3.065-3.066 1.373-3.066 3.065c0 1.693 1.373 3.065 3.066 3.065z"/><path d="m455.266 222.481c1.693 0 3.066-1.373 3.066-3.065 0-1.693-1.372-3.065-3.066-3.065-1.693 0-3.065 1.372-3.065 3.065 0 1.692 1.372 3.065 3.065 3.065z"/><path d="m465.52 231.991c1.693 0 3.066-1.373 3.066-3.065 0-1.694-1.373-3.066-3.066-3.066s-3.066 1.372-3.066 3.066c0 1.692 1.373 3.065 3.066 3.065z"/><path d="m455.266 242.244c1.693 0 3.066-1.372 3.066-3.065 0-1.692-1.372-3.064-3.066-3.064-1.693 0-3.065 1.372-3.065 3.064 0 1.693 1.372 3.065 3.065 3.065z"/><path d="m465.52 251.754c1.693 0 3.066-1.372 3.066-3.065s-1.373-3.066-3.066-3.066-3.066 1.372-3.066 3.066c0 1.693 1.373 3.065 3.066 3.065z"/><path d="m455.266 262.008c1.693 0 3.066-1.372 3.066-3.065s-1.372-3.066-3.066-3.066c-1.693 0-3.065 1.373-3.065 3.066s1.372 3.065 3.065 3.065z"/><path d="m455.266 281.772c1.693 0 3.066-1.373 3.066-3.066 0-1.692-1.372-3.066-3.066-3.066-1.693 0-3.065 1.373-3.065 3.066 0 1.692 1.372 3.066 3.065 3.066z"/><circle cx="445.757" cy="209.162" r="3.066"/><path d="m445.757 225.859c-1.693 0-3.066 1.372-3.066 3.066 0 1.692 1.373 3.065 3.066 3.065s3.066-1.373 3.066-3.065c-.001-1.694-1.374-3.066-3.066-3.066z"/><path d="m445.757 245.623c-1.693 0-3.066 1.372-3.066 3.066 0 1.693 1.373 3.065 3.066 3.065s3.066-1.372 3.066-3.065c-.001-1.694-1.374-3.066-3.066-3.066z"/><path d="m435.503 262.008c1.693 0 3.066-1.372 3.066-3.065s-1.373-3.066-3.066-3.066-3.065 1.373-3.065 3.066 1.372 3.065 3.065 3.065z"/><path d="m445.757 265.387c-1.693 0-3.066 1.372-3.066 3.065 0 1.694 1.373 3.066 3.066 3.066s3.066-1.372 3.066-3.066c-.001-1.693-1.374-3.065-3.066-3.065z"/><path d="m435.503 281.772c1.693 0 3.066-1.373 3.066-3.066 0-1.692-1.373-3.066-3.066-3.066s-3.065 1.373-3.065 3.066c0 1.692 1.372 3.066 3.065 3.066z"/><path d="m445.757 285.149c-1.693 0-3.066 1.373-3.066 3.065s1.373 3.066 3.066 3.066 3.066-1.374 3.066-3.066c-.001-1.692-1.374-3.065-3.066-3.065z"/><path d="m425.993 271.518c1.693 0 3.065-1.372 3.065-3.066 0-1.692-1.373-3.065-3.065-3.065-1.693 0-3.066 1.372-3.066 3.065.001 1.694 1.373 3.066 3.066 3.066z"/><path d="m415.74 281.772c1.693 0 3.066-1.373 3.066-3.066 0-1.692-1.373-3.066-3.066-3.066s-3.065 1.373-3.065 3.066c-.001 1.692 1.372 3.066 3.065 3.066z"/><path d="m425.993 291.281c1.693 0 3.065-1.374 3.065-3.066s-1.373-3.065-3.065-3.065c-1.693 0-3.066 1.373-3.066 3.065.001 1.692 1.373 3.066 3.066 3.066z"/><path d="m406.23 265.387c-1.693 0-3.065 1.372-3.065 3.065 0 1.694 1.372 3.066 3.065 3.066s3.066-1.372 3.066-3.066c0-1.693-1.373-3.065-3.066-3.065z"/><path d="m395.977 275.64c-1.693 0-3.066 1.373-3.066 3.066s1.372 3.066 3.066 3.066c1.693 0 3.065-1.373 3.065-3.066s-1.373-3.066-3.065-3.066z"/><path d="m406.23 285.149c-1.693 0-3.065 1.373-3.065 3.065s1.372 3.066 3.065 3.066 3.066-1.374 3.066-3.066-1.373-3.065-3.066-3.065z"/><path d="m386.467 265.387c-1.693 0-3.066 1.372-3.066 3.065 0 1.694 1.373 3.066 3.066 3.066s3.066-1.372 3.066-3.066c0-1.693-1.373-3.065-3.066-3.065z"/><path d="m376.213 275.64c-1.693 0-3.065 1.373-3.065 3.066s1.372 3.066 3.065 3.066 3.066-1.373 3.066-3.066-1.373-3.066-3.066-3.066z"/><path d="m386.467 285.149c-1.693 0-3.066 1.373-3.066 3.065s1.373 3.066 3.066 3.066 3.066-1.374 3.066-3.066-1.373-3.065-3.066-3.065z"/><path d="m366.704 265.387c-1.693 0-3.066 1.372-3.066 3.065 0 1.694 1.372 3.066 3.066 3.066 1.693 0 3.066-1.372 3.066-3.066-.001-1.693-1.373-3.065-3.066-3.065z"/><path d="m356.45 275.64c-1.693 0-3.065 1.373-3.065 3.066s1.372 3.066 3.065 3.066 3.066-1.373 3.066-3.066c-.001-1.693-1.373-3.066-3.066-3.066z"/><path d="m366.704 285.149c-1.693 0-3.066 1.373-3.066 3.065s1.372 3.066 3.066 3.066c1.693 0 3.066-1.374 3.066-3.066-.001-1.692-1.373-3.065-3.066-3.065z"/><path d="m346.94 265.387c-1.693 0-3.066 1.372-3.066 3.065 0 1.694 1.373 3.066 3.066 3.066s3.066-1.372 3.066-3.066c0-1.693-1.373-3.065-3.066-3.065z"/><path d="m336.686 275.64c-1.693 0-3.065 1.373-3.065 3.066s1.373 3.066 3.065 3.066c1.693 0 3.066-1.373 3.066-3.066s-1.372-3.066-3.066-3.066z"/><path d="m346.94 285.149c-1.693 0-3.066 1.373-3.066 3.065s1.373 3.066 3.066 3.066 3.066-1.374 3.066-3.066-1.373-3.065-3.066-3.065z"/><path d="m327.177 265.387c-1.693 0-3.065 1.372-3.065 3.065 0 1.694 1.372 3.066 3.065 3.066s3.066-1.372 3.066-3.066c0-1.693-1.373-3.065-3.066-3.065z"/><path d="m316.923 275.64c-1.693 0-3.066 1.373-3.066 3.066s1.372 3.066 3.066 3.066c1.693 0 3.065-1.373 3.065-3.066.001-1.693-1.372-3.066-3.065-3.066z"/><path d="m327.177 285.149c-1.693 0-3.065 1.373-3.065 3.065s1.372 3.066 3.065 3.066 3.066-1.374 3.066-3.066-1.373-3.065-3.066-3.065z"/><path d="m307.414 265.387c-1.693 0-3.065 1.372-3.065 3.065 0 1.694 1.372 3.066 3.065 3.066s3.066-1.372 3.066-3.066c-.001-1.693-1.373-3.065-3.066-3.065z"/><path d="m297.16 275.64c-1.693 0-3.066 1.373-3.066 3.066s1.373 3.066 3.066 3.066 3.065-1.373 3.065-3.066c.001-1.693-1.372-3.066-3.065-3.066z"/><path d="m307.414 285.149c-1.693 0-3.065 1.373-3.065 3.065s1.372 3.066 3.065 3.066 3.066-1.374 3.066-3.066c-.001-1.692-1.373-3.065-3.066-3.065z"/><path d="m287.651 265.387c-1.693 0-3.066 1.372-3.066 3.065 0 1.694 1.372 3.066 3.066 3.066 1.693 0 3.066-1.372 3.066-3.066-.001-1.693-1.373-3.065-3.066-3.065z"/><path d="m277.397 275.64c-1.693 0-3.065 1.373-3.065 3.066s1.373 3.066 3.065 3.066c1.693 0 3.066-1.373 3.066-3.066-.001-1.693-1.373-3.066-3.066-3.066z"/><path d="m287.651 285.149c-1.693 0-3.066 1.373-3.066 3.065s1.372 3.066 3.066 3.066c1.693 0 3.066-1.374 3.066-3.066-.001-1.692-1.373-3.065-3.066-3.065z"/><path d="m267.887 265.387c-1.693 0-3.066 1.372-3.066 3.065 0 1.694 1.373 3.066 3.066 3.066s3.066-1.372 3.066-3.066c0-1.693-1.373-3.065-3.066-3.065z"/><path d="m257.634 275.64c-1.693 0-3.066 1.373-3.066 3.066s1.372 3.066 3.066 3.066c1.693 0 3.065-1.373 3.065-3.066s-1.372-3.066-3.065-3.066z"/><path d="m267.887 285.149c-1.693 0-3.066 1.373-3.066 3.065s1.373 3.066 3.066 3.066 3.066-1.374 3.066-3.066-1.373-3.065-3.066-3.065z"/><path d="m248.124 265.387c-1.693 0-3.066 1.372-3.066 3.065 0 1.694 1.372 3.066 3.066 3.066 1.693 0 3.066-1.372 3.066-3.066-.001-1.693-1.373-3.065-3.066-3.065z"/><path d="m237.87 275.64c-1.693 0-3.066 1.373-3.066 3.066s1.373 3.066 3.066 3.066 3.065-1.373 3.065-3.066c.001-1.693-1.372-3.066-3.065-3.066z"/><path d="m248.124 285.149c-1.693 0-3.066 1.373-3.066 3.065s1.372 3.066 3.066 3.066c1.693 0 3.066-1.374 3.066-3.066-.001-1.692-1.373-3.065-3.066-3.065z"/><path d="m228.361 265.387c-1.693 0-3.066 1.372-3.066 3.065 0 1.694 1.372 3.066 3.066 3.066 1.693 0 3.065-1.372 3.065-3.066 0-1.693-1.372-3.065-3.065-3.065z"/><path d="m218.107 275.64c-1.693 0-3.066 1.373-3.066 3.066s1.373 3.066 3.066 3.066 3.065-1.373 3.065-3.066c.001-1.693-1.372-3.066-3.065-3.066z"/><path d="m228.361 285.149c-1.693 0-3.066 1.373-3.066 3.065s1.372 3.066 3.066 3.066c1.693 0 3.065-1.374 3.065-3.066s-1.372-3.065-3.065-3.065z"/><path d="m208.597 265.387c-1.693 0-3.065 1.372-3.065 3.065 0 1.694 1.373 3.066 3.065 3.066 1.693 0 3.066-1.372 3.066-3.066 0-1.693-1.373-3.065-3.066-3.065z"/><path d="m198.344 275.64c-1.693 0-3.066 1.373-3.066 3.066s1.372 3.066 3.066 3.066 3.065-1.373 3.065-3.066-1.372-3.066-3.065-3.066z"/><path d="m208.597 285.149c-1.693 0-3.065 1.373-3.065 3.065s1.373 3.066 3.065 3.066c1.693 0 3.066-1.374 3.066-3.066s-1.373-3.065-3.066-3.065z"/><path d="m188.834 265.387c-1.693 0-3.066 1.372-3.066 3.065 0 1.694 1.373 3.066 3.066 3.066s3.066-1.372 3.066-3.066c0-1.693-1.373-3.065-3.066-3.065z"/><path d="m188.834 285.149c-1.693 0-3.066 1.373-3.066 3.065s1.373 3.066 3.066 3.066 3.066-1.374 3.066-3.066-1.373-3.065-3.066-3.065z"/><path d="m445.744 192.451c1.693 0 3.066-1.373 3.066-3.066 0-1.692-1.372-3.065-3.066-3.065-1.693 0-3.065 1.373-3.065 3.065 0 1.693 1.372 3.066 3.065 3.066z"/><path d="m490.238 79.269h-94.258c-17.911-30.823-51.292-51.594-89.436-51.594s-71.525 20.771-89.436 51.594h-100.193l-4.157-13.946c-2.541-10.029-11.523-17.023-21.877-17.023h-68.311c-12.445 0-22.57 10.125-22.57 22.57 0 12.444 10.125 22.57 22.57 22.57h50.833l62.921 207.474 2.776 66.575c.011.271.05.539.116.802 2.509 10.076 11.514 17.115 21.9 17.115h37.826c-19.722 7.029-33.88 25.882-33.88 47.986 0 28.084 22.848 50.933 50.932 50.933s50.932-22.849 50.932-50.933c0-22.105-14.159-40.957-33.88-47.986h158.324c-19.722 7.029-33.881 25.882-33.881 47.986 0 28.084 22.848 50.933 50.933 50.933 28.084 0 50.932-22.849 50.932-50.933 0-22.105-14.159-40.957-33.88-47.986h36.096c12.445 0 22.57-10.125 22.57-22.57 0-12.444-10.125-22.57-22.57-22.57h-279.019l-.147-39.992h266.917c11.929 0 22.031-8.535 24.022-20.295.012-.064.021-.13.029-.195l18.72-157.073c11.134-.946 19.908-10.305 19.908-21.68 0-12.001-9.763-21.762-21.762-21.762zm-183.693-43.57c52.57 0 95.339 42.769 95.339 95.34 0 52.57-42.768 95.339-95.339 95.339-52.57 0-95.339-42.768-95.339-95.339-.001-52.57 42.768-95.34 95.339-95.34zm-93.636 51.594c-4.027 8.585-6.908 17.809-8.444 27.476h-76.968l-8.19-27.476zm23.305 346.1c0 11.149-9.071 20.22-20.221 20.22s-20.22-9.07-20.22-20.22c0-11.149 9.071-20.221 20.22-20.221 11.15 0 20.221 9.071 20.221 20.221zm192.428 0c0 11.149-9.071 20.22-20.22 20.22-11.15 0-20.221-9.07-20.221-20.22 0-11.149 9.071-20.221 20.221-20.221 11.149 0 20.22 9.071 20.22 20.221zm32.928-85.102c8.02 0 14.545 6.525 14.545 14.545 0 8.021-6.525 14.545-14.545 14.545h-300.455c-6.565 0-12.274-4.363-14.016-10.658l-2.779-66.652c-.014-.338-.071-.673-.169-.997l-63.933-210.811c-.513-1.69-2.072-2.848-3.839-2.848h-53.809c-8.02 0-14.545-6.525-14.545-14.545 0-8.021 6.525-14.545 14.545-14.545h68.311c6.693 0 12.497 4.535 14.114 11.029.015.059.031.117.048.176l69.336 232.608.163 44.154c.008 2.21 1.802 3.998 4.013 3.998h283.015zm15.851-170.298c-.561-.707-1.419-1.17-2.392-1.17-1.693 0-3.065 1.373-3.065 3.066s1.372 3.066 3.065 3.066c.712 0 1.359-.253 1.879-.66l-1.706 14.31c-.059-.003-.114-.018-.174-.018-1.693 0-3.065 1.372-3.065 3.065 0 1.506 1.087 2.752 2.517 3.011l-7.52 63.099c-.431-.231-.917-.375-1.441-.375-1.693 0-3.066 1.372-3.066 3.065 0 1.694 1.373 3.066 3.066 3.066.267 0 .521-.045.768-.108l-.873 7.321c-1.371 7.839-8.125 13.518-16.094 13.518h-268.919l-3.23-10.837c.424.222.899.359 1.41.359 1.693 0 3.066-1.373 3.066-3.066 0-1.692-1.373-3.066-3.066-3.066-1.148 0-2.137.639-2.662 1.573l-46.029-154.419h73.62c-.216 2.72-.329 5.47-.329 8.245 0 56.995 46.369 103.363 103.364 103.363s103.364-46.368 103.364-103.363c0-2.775-.113-5.525-.329-8.245h74.42zm12.817-63.224h-81.615c-1.535-9.667-4.417-18.891-8.444-27.476h90.058c7.574 0 13.737 6.163 13.737 13.738.001 7.575-6.162 13.738-13.736 13.738z"/><path d="m445.757 146.814c-1.693 0-3.066 1.372-3.066 3.065s1.373 3.065 3.066 3.065 3.066-1.372 3.066-3.065c-.001-1.692-1.373-3.065-3.066-3.065z"/><path d="m445.757 166.577c-1.693 0-3.066 1.372-3.066 3.066 0 1.693 1.373 3.065 3.066 3.065s3.066-1.372 3.066-3.065c-.001-1.694-1.373-3.066-3.066-3.066z"/><path d="m445.744 127.037c-1.693 0-3.065 1.372-3.065 3.065 0 1.694 1.372 3.066 3.065 3.066s3.066-1.373 3.066-3.066-1.373-3.065-3.066-3.065z"/></g><g><path d="m354.337 150.823h-95.584c-6.558 0-11.893-5.335-11.893-11.893v-15.784c0-6.558 5.335-11.893 11.893-11.893h95.584c6.557 0 11.892 5.335 11.892 11.893v15.784c-.001 6.558-5.336 11.893-11.892 11.893zm-95.584-31.569c-2.146 0-3.893 1.746-3.893 3.893v15.784c0 2.146 1.746 3.893 3.893 3.893h95.584c2.146 0 3.892-1.746 3.892-3.893v-15.784c0-2.146-1.746-3.893-3.892-3.893z"/></g></g></svg>