<svg enable-background="new 0 0 24 24" height="22" viewBox="0 0 24 24" width="24" xmlns="http://www.w3.org/2000/svg"><path d="m21.5 24h-19c-1.379 0-2.5-1.122-2.5-2.5v-19c0-1.378 1.121-2.5 2.5-2.5h19c1.379 0 2.5 1.122 2.5 2.5v19c0 1.378-1.121 2.5-2.5 2.5zm-19-23c-.827 0-1.5.673-1.5 1.5v19c0 .827.673 1.5 1.5 1.5h19c.827 0 1.5-.673 1.5-1.5v-19c0-.827-.673-1.5-1.5-1.5z"/><path d="m14.5 16h-2c-1.379 0-2.5-1.122-2.5-2.5v-3c0-1.378 1.121-2.5 2.5-2.5h2c.276 0 .5.224.5.5s-.224.5-.5.5h-2c-.827 0-1.5.673-1.5 1.5v3c0 .827.673 1.5 1.5 1.5h2c.276 0 .5.224.5.5s-.224.5-.5.5z"/><path d="m14.5 12.5h-4c-.276 0-.5-.224-.5-.5s.224-.5.5-.5h4c.276 0 .5.224.5.5s-.224.5-.5.5z"/><path d="m6.5 16h-2c-.276 0-.5-.224-.5-.5v-7c0-.276.224-.5.5-.5h2c1.379 0 2.5 1.122 2.5 2.5v3c0 1.378-1.121 2.5-2.5 2.5zm-1.5-1h1.5c.827 0 1.5-.673 1.5-1.5v-3c0-.827-.673-1.5-1.5-1.5h-1.5z"/><path d="m20.5 16h-2c-1.379 0-2.5-1.122-2.5-2.5v-5c0-.276.224-.5.5-.5s.5.224.5.5v5c0 .827.673 1.5 1.5 1.5h2c.276 0 .5.224.5.5s-.224.5-.5.5z"/></svg>